<mxfile host="app.diagrams.net" agent="Mozilla/5.0 (X11; Linux x86_64) AppleWebKit/537.36 (KHTML, like Gecko) Chrome/133.0.0.0 Safari/537.36" version="26.0.16">
  <diagram name="Page-1" id="MOYJXVmMyPfi9ZtgV_ge">
    <mxGraphModel dx="5459" dy="1820" grid="1" gridSize="10" guides="1" tooltips="1" connect="1" arrows="1" fold="1" page="1" pageScale="1" pageWidth="850" pageHeight="1100" math="0" shadow="0">
      <root>
        <mxCell id="0" />
        <mxCell id="1" parent="0" />
        <mxCell id="cboI02JAm9TRPGkR1qwY-1" value="$" style="rounded=0;whiteSpace=wrap;html=1;" vertex="1" parent="1">
          <mxGeometry x="-2490" y="130" width="1520" height="980" as="geometry" />
        </mxCell>
        <mxCell id="cboI02JAm9TRPGkR1qwY-2" value="Deployment&amp;nbsp;" style="text;html=1;align=center;verticalAlign=middle;whiteSpace=wrap;rounded=0;fontSize=30;" vertex="1" parent="1">
          <mxGeometry x="-1850" y="140" width="240" height="80" as="geometry" />
        </mxCell>
        <mxCell id="cboI02JAm9TRPGkR1qwY-3" value="&lt;font style=&quot;font-size: 24px;&quot;&gt;Web Client&lt;/font&gt;" style="rounded=1;whiteSpace=wrap;html=1;" vertex="1" parent="1">
          <mxGeometry x="-2420" y="570" width="205" height="110" as="geometry" />
        </mxCell>
        <mxCell id="cboI02JAm9TRPGkR1qwY-4" value="&lt;font style=&quot;font-size: 24px;&quot;&gt;Beep Backend&lt;/font&gt;" style="rounded=1;whiteSpace=wrap;html=1;" vertex="1" parent="1">
          <mxGeometry x="-2070" y="570" width="205" height="110" as="geometry" />
        </mxCell>
        <mxCell id="cboI02JAm9TRPGkR1qwY-5" value="&lt;font style=&quot;font-size: 24px;&quot;&gt;Keycloak&lt;/font&gt;&lt;span style=&quot;color: rgba(0, 0, 0, 0); font-family: monospace; font-size: 0px; text-align: start; text-wrap-mode: nowrap;&quot;&gt;%3CmxGraphModel%3E%3Croot%3E%3CmxCell%20id%3D%220%22%2F%3E%3CmxCell%20id%3D%221%22%20parent%3D%220%22%2F%3E%3CmxCell%20id%3D%222%22%20value%3D%22%26lt%3Bfont%20style%3D%26quot%3Bfont-size%3A%2024px%3B%26quot%3B%26gt%3BBeep%20Backend%26lt%3B%2Ffont%26gt%3B%22%20style%3D%22rounded%3D1%3BwhiteSpace%3Dwrap%3Bhtml%3D1%3B%22%20vertex%3D%221%22%20parent%3D%221%22%3E%3CmxGeometry%20x%3D%22-1180%22%20y%3D%22550%22%20width%3D%22205%22%20height%3D%22110%22%20as%3D%22geometry%22%2F%3E%3C%2FmxCell%3E%3C%2Froot%3E%3C%2FmxGraphModel%3E&lt;/span&gt;" style="rounded=1;whiteSpace=wrap;html=1;" vertex="1" parent="1">
          <mxGeometry x="-1710" y="370" width="205" height="110" as="geometry" />
        </mxCell>
        <mxCell id="cboI02JAm9TRPGkR1qwY-6" value="&lt;span style=&quot;font-size: 24px;&quot;&gt;Database&lt;/span&gt;" style="rounded=1;whiteSpace=wrap;html=1;" vertex="1" parent="1">
          <mxGeometry x="-1710" y="790" width="205" height="110" as="geometry" />
        </mxCell>
        <mxCell id="cboI02JAm9TRPGkR1qwY-7" value="&lt;span style=&quot;font-size: 24px;&quot;&gt;Google OAuth&lt;/span&gt;" style="rounded=1;whiteSpace=wrap;html=1;" vertex="1" parent="1">
          <mxGeometry x="-1320" y="540" width="205" height="110" as="geometry" />
        </mxCell>
        <mxCell id="cboI02JAm9TRPGkR1qwY-8" value="&lt;span style=&quot;font-size: 24px;&quot;&gt;Polytech LDAP&lt;/span&gt;" style="rounded=1;whiteSpace=wrap;html=1;" vertex="1" parent="1">
          <mxGeometry x="-1310" y="220" width="205" height="110" as="geometry" />
        </mxCell>
        <mxCell id="cboI02JAm9TRPGkR1qwY-9" value="" style="endArrow=block;html=1;rounded=0;exitX=1;exitY=0.5;exitDx=0;exitDy=0;entryX=0;entryY=0.5;entryDx=0;entryDy=0;endFill=0;" edge="1" parent="1" source="cboI02JAm9TRPGkR1qwY-3" target="cboI02JAm9TRPGkR1qwY-4">
          <mxGeometry width="50" height="50" relative="1" as="geometry">
            <mxPoint x="-1850" y="410" as="sourcePoint" />
            <mxPoint x="-1800" y="360" as="targetPoint" />
          </mxGeometry>
        </mxCell>
        <mxCell id="cboI02JAm9TRPGkR1qwY-10" value="" style="endArrow=block;html=1;rounded=0;exitX=1;exitY=0.25;exitDx=0;exitDy=0;entryX=0;entryY=0.5;entryDx=0;entryDy=0;endFill=0;edgeStyle=orthogonalEdgeStyle;" edge="1" parent="1" source="cboI02JAm9TRPGkR1qwY-4" target="cboI02JAm9TRPGkR1qwY-5">
          <mxGeometry width="50" height="50" relative="1" as="geometry">
            <mxPoint x="-1820" y="610" as="sourcePoint" />
            <mxPoint x="-1675" y="610" as="targetPoint" />
          </mxGeometry>
        </mxCell>
        <mxCell id="cboI02JAm9TRPGkR1qwY-11" value="" style="endArrow=block;html=1;rounded=0;exitX=1;exitY=0.75;exitDx=0;exitDy=0;entryX=0;entryY=0.5;entryDx=0;entryDy=0;endFill=0;edgeStyle=orthogonalEdgeStyle;" edge="1" parent="1" source="cboI02JAm9TRPGkR1qwY-4" target="cboI02JAm9TRPGkR1qwY-6">
          <mxGeometry width="50" height="50" relative="1" as="geometry">
            <mxPoint x="-1855" y="635" as="sourcePoint" />
            <mxPoint x="-1700" y="435" as="targetPoint" />
          </mxGeometry>
        </mxCell>
        <mxCell id="cboI02JAm9TRPGkR1qwY-12" value="" style="endArrow=block;html=1;rounded=0;exitX=1;exitY=0.25;exitDx=0;exitDy=0;entryX=0;entryY=0.5;entryDx=0;entryDy=0;endFill=0;edgeStyle=orthogonalEdgeStyle;" edge="1" parent="1" source="cboI02JAm9TRPGkR1qwY-5" target="cboI02JAm9TRPGkR1qwY-8">
          <mxGeometry width="50" height="50" relative="1" as="geometry">
            <mxPoint x="-1505" y="393" as="sourcePoint" />
            <mxPoint x="-1350" y="220" as="targetPoint" />
          </mxGeometry>
        </mxCell>
        <mxCell id="cboI02JAm9TRPGkR1qwY-13" value="" style="endArrow=block;html=1;rounded=0;exitX=1;exitY=0.75;exitDx=0;exitDy=0;entryX=0;entryY=0.5;entryDx=0;entryDy=0;endFill=0;edgeStyle=orthogonalEdgeStyle;" edge="1" parent="1" source="cboI02JAm9TRPGkR1qwY-5" target="cboI02JAm9TRPGkR1qwY-7">
          <mxGeometry width="50" height="50" relative="1" as="geometry">
            <mxPoint x="-1495" y="408" as="sourcePoint" />
            <mxPoint x="-1300" y="285" as="targetPoint" />
          </mxGeometry>
        </mxCell>
      </root>
    </mxGraphModel>
  </diagram>
</mxfile>
